<svg width="24" height="24" viewBox="0 0 24 24" fill="none" xmlns="http://www.w3.org/2000/svg">
  <path d="M12 2C8.13 2 5 5.13 5 9c0 2.38 1.19 4.47 3 5.74V17c0 .55.45 1 1 1h6c.55 0 1-.45 1-1v-2.26c1.81-1.27 3-3.36 3-5.74 0-3.87-3.13-7-7-7z" fill="#8b5cf6" opacity="0.85"/>
  <path d="M9 21c0 .55.45 1 1 1h4c.55 0 1-.45 1-1v-1H9v1z" fill="#8b5cf6" opacity="0.6"/>
  <circle cx="10" cy="9" r="1.2" fill="#fff" opacity="0.9"/>
  <circle cx="14" cy="9" r="1.2" fill="#fff" opacity="0.9"/>
  <path d="M10 12.5c0 0 1 1.5 2 1.5s2-1.5 2-1.5" stroke="#fff" stroke-width="0.8" stroke-linecap="round" fill="none" opacity="0.7"/>
  <path d="M7.5 5.5C6.5 3 8 1.5 10 1.5" stroke="#8b5cf6" stroke-width="0.7" stroke-linecap="round" fill="none" opacity="0.4"/>
  <path d="M16.5 5.5C17.5 3 16 1.5 14 1.5" stroke="#8b5cf6" stroke-width="0.7" stroke-linecap="round" fill="none" opacity="0.4"/>
</svg>
